<svg xmlns="http://www.w3.org/2000/svg" width="45px" height="66px" viewBox="0 0 45 66">
  <!-- White Dragon Tile Background -->
  <path d="M-298.376 413.497h67.746a5.403 5.403 0 0 1 5.409 5.409v104.147a5.408 5.408 0 0 1-5.409 5.408h-67.746a5.408 5.408 0 0 1-5.408-5.408V418.906a5.403 5.403 0 0 1 5.408-5.409Zm0 0" style="fill-rule:nonzero;fill:#fff;fill-opacity:1;stroke-width:1.009;stroke-linecap:butt;stroke-linejoin:miter;stroke:#000;stroke-opacity:1;stroke-miterlimit:4" transform="translate(172.084 -233.56) scale(.56553)"/>

  <!-- Wireframe Globe Icon -->
  <g transform="translate(22.5, 33) scale(0.85)">
    <!-- Outer Circle -->
    <circle cx="0" cy="0" r="14" fill="none" stroke="#2c3e50" stroke-width="1.5"/>

    <!-- Vertical Lines (Meridians) -->
    <line x1="0" y1="-14" x2="0" y2="14" stroke="#2c3e50" stroke-width="1.5"/>
    <ellipse cx="0" cy="0" rx="7" ry="14" fill="none" stroke="#2c3e50" stroke-width="1.5"/>

    <!-- Horizontal Lines (Parallels) -->
    <line x1="-14" y1="0" x2="14" y2="0" stroke="#2c3e50" stroke-width="1.5"/>
    <path d="M-12.12,-7 Q0,-3 12.12,-7" fill="none" stroke="#2c3e50" stroke-width="1.5"/>
    <path d="M-12.12,7 Q0,3 12.12,7" fill="none" stroke="#2c3e50" stroke-width="1.5"/>
  </g>
</svg>